<?xml version="1.0" encoding="utf-8"?>
<!-- Generator: Adobe Illustrator 24.1.1, SVG Export Plug-In . SVG Version: 6.00 Build 0)  -->
<svg version="1.1" id="Layer_1" xmlns="http://www.w3.org/2000/svg" xmlns:xlink="http://www.w3.org/1999/xlink" x="0px" y="0px"
	 viewBox="0 0 40 40" style="enable-background:new 0 0 40 40;" xml:space="preserve">
<style type="text/css">
	.st0{fill:#E7EBF0;}
	.st1{fill:#FFFFFF;}
	.st2{fill:#FFD058;}
	.st3{fill:#2E3A59;}
	.st4{fill:#00C368;}
	.st5{fill:#EBEFF3;}
</style>
<g>
	<path class="st0" d="M20,0L20,0c11,0,20,9,20,20l0,0c0,11-9,20-20,20l0,0C9,40,0,31,0,20l0,0C0,9,9,0,20,0z"/>
	<path class="st1" d="M29,10.7c-0.2-0.2-0.5-0.4-0.7-0.6c-0.2-0.4-0.5-0.7-0.8-1C25.4,7,22,6.8,19.7,8.7c-1.8,1.5-3.9,3.3-5.4,4.9
		c-1.8,1.7-3.8,4.1-5.5,6.1c-1.9,2.3-1.7,5.7,0.4,7.8c0.2,0.2,0.4,0.4,0.7,0.6c0.3,0.4,0.5,0.7,0.9,1.1c3,3,7.9,2.7,10.7-0.5
		c1.3-1.5,2.6-2.9,3.8-4.1c1-1,2.2-2.1,3.4-3.1C31.7,18.6,32,13.6,29,10.7z"/>
	<path class="st2" d="M19.6,12.4L19.6,12.4c1.2-1.2,3.1-1.2,4.2,0l0,0c1.2,1.2,1.2,3.1,0,4.2l0,0c-1.2,1.2-3.1,1.2-4.2,0l0,0
		C18.4,15.5,18.4,13.6,19.6,12.4z"/>
	<g>
		<path class="st3" d="M29.4,10.3c-0.2-0.2-0.5-0.4-0.7-0.6c-0.2-0.4-0.5-0.7-0.9-1.1c-2.3-2.3-6-2.5-8.5-0.4
			c-2.3,1.9-4.1,3.6-5.5,4.9c-1.5,1.5-3.4,3.6-5.6,6.2c-2.1,2.5-1.9,6.1,0.4,8.5C9,28,9.2,28.2,9.4,28.3c0.3,0.4,0.5,0.7,0.9,1.1
			c1.4,1.4,3.3,2.2,5.4,2.2c0.1,0,0.2,0,0.3,0c2.2-0.1,4.3-1.1,5.8-2.7c1.4-1.7,2.7-3,3.8-4.1c0.9-0.9,2-1.9,3.4-3.1
			c1.7-1.5,2.7-3.6,2.8-5.8C31.7,13.8,30.9,11.8,29.4,10.3z M9.1,19.9c2.2-2.6,4-4.6,5.5-6.1c1.3-1.3,3.1-2.9,5.4-4.8
			c2.1-1.7,5.1-1.6,7.1,0.4c1.1,1.1,1.7,2.6,1.6,4.1c-0.1,1.6-0.8,3.1-2,4.2c-1.8,1.5-3.2,2.8-4.3,3.9c-1.3,1.3-2.8,3-4.6,5
			c-1,1.2-2.6,2-4.2,2c-1.6,0.1-3-0.5-4.1-1.6C7.5,25.1,7.3,22,9.1,19.9z M28.2,21c-1.4,1.2-2.5,2.2-3.4,3.1
			c-1.1,1.1-2.4,2.5-3.8,4.1c-1.3,1.5-3.1,2.3-5,2.4c-1.4,0.1-2.8-0.3-3.9-1.1c0.4,0.1,0.9,0.1,1.4,0.1c0.1,0,0.2,0,0.3,0
			c1.9-0.1,3.7-0.9,4.9-2.4c1.8-2.1,3.3-3.7,4.6-5c1.1-1.1,2.5-2.4,4.3-3.9c1.4-1.2,2.3-3,2.4-4.9c0-0.4,0-0.9-0.1-1.3
			c0.7,1.1,1,2.3,1,3.7C30.5,17.9,29.7,19.7,28.2,21z"/>
		<path class="st3" d="M21.7,18c0.9,0,1.8-0.3,2.5-1c1.4-1.4,1.4-3.6,0-4.9c-1.4-1.4-3.6-1.4-5,0s-1.4,3.6,0,4.9
			C19.9,17.7,20.8,18,21.7,18z M19.9,12.7c1-1,2.6-1,3.5,0c1,1,1,2.6,0,3.5c-1,1-2.6,1-3.5,0C18.9,15.3,18.9,13.7,19.9,12.7z"/>
	</g>
	<path class="st4" d="M11.7,22.3L11.7,22.3c0.4-0.4,1-0.4,1.4,0l0,0c0.4,0.4,0.4,1,0,1.4l0,0c-0.4,0.4-1,0.4-1.4,0l0,0
		C11.3,23.3,11.3,22.7,11.7,22.3z"/>
	<path class="st5" d="M20,39C9.5,39,1,30.5,1,20S9.5,1,20,1s19,8.5,19,19S30.5,39,20,39 M20,0C9,0,0,9,0,20s9,20,20,20s20-9,20-20
		S31,0,20,0"/>
</g>
</svg>
