<?xml version="1.0" encoding="utf-8"?>
<!-- Generator: Adobe Illustrator 24.1.1, SVG Export Plug-In . SVG Version: 6.00 Build 0)  -->
<svg version="1.1" id="Layer_1" xmlns="http://www.w3.org/2000/svg" xmlns:xlink="http://www.w3.org/1999/xlink" x="0px" y="0px"
	 viewBox="0 0 40 40" style="enable-background:new 0 0 40 40;" xml:space="preserve">
<style type="text/css">
	.st0{fill:#E7EBF0;}
	.st1{fill:#FFFFFF;}
	.st2{fill:#2E3A59;}
	.st3{fill:#A6ABBD;}
	.st4{fill:#EBEFF3;}
</style>
<g>
	<path class="st0" d="M20,0L20,0c11,0,20,9,20,20l0,0c0,11-9,20-20,20l0,0C9,40,0,31,0,20l0,0C0,9,9,0,20,0z"/>
	<path class="st1" d="M12.5,18c0-4.1,3.4-7.5,7.5-7.5s7.5,3.4,7.5,7.5v7.5h-15V18z"/>
	<path class="st2" d="M20,10c-4.4,0-8,3.6-8,8v8h2v5h2v-5h8v5h2v-5h2v-8C28,13.6,24.4,10,20,10z M27,25H13v-7c0-3.8,3.2-7,7-7
		s7,3.2,7,7V25z"/>
	<rect x="13" y="23" class="st3" width="14" height="2"/>
	<path class="st4" d="M20,39C9.5,39,1,30.5,1,20S9.5,1,20,1s19,8.5,19,19S30.5,39,20,39 M20,0C9,0,0,9,0,20s9,20,20,20s20-9,20-20
		S31,0,20,0"/>
</g>
</svg>
