<?xml version="1.0" encoding="utf-8"?>
<!-- Generator: Adobe Illustrator 24.1.1, SVG Export Plug-In . SVG Version: 6.00 Build 0)  -->
<svg version="1.1" id="Layer_1" xmlns="http://www.w3.org/2000/svg" xmlns:xlink="http://www.w3.org/1999/xlink" x="0px" y="0px"
	 viewBox="0 0 40 40" style="enable-background:new 0 0 40 40;" xml:space="preserve">
<style type="text/css">
	.st0{fill:#E7EBF0;}
	.st1{fill:#FFFFFF;}
	.st2{fill:#FFD058;}
	.st3{fill:#A6ABBD;}
	.st4{fill:#2E3A59;}
	.st5{fill:#EBEFF3;}
</style>
<g>
	<path class="st0" d="M20,0L20,0c11,0,20,9,20,20l0,0c0,11-9,20-20,20l0,0C9,40,0,31,0,20l0,0C0,9,9,0,20,0z"/>
	<path class="st1" d="M20,4.5L20,4.5c6.4,0,11.5,5.1,11.5,11.5l0,0c0,6.4-5.1,11.5-11.5,11.5l0,0c-6.4,0-11.5-5.1-11.5-11.5l0,0
		C8.5,9.6,13.6,4.5,20,4.5z"/>
	<path class="st2" d="M18,32.5h4c0.8,0,1.5,0.7,1.5,1.5v1c0,0.8-0.7,1.5-1.5,1.5h-4c-0.8,0-1.5-0.7-1.5-1.5v-1
		C16.5,33.2,17.2,32.5,18,32.5z"/>
	<path class="st3" d="M14.5,26.5V33c0,0.8,0.7,1.5,1.5,1.5l0,0h8l0,0c0.8,0,1.5-0.7,1.5-1.5v-6.5H14.5z"/>
	<path class="st4" d="M34.5,6.7L33.8,6l-3.6,3.6C28,6.3,24.3,4,20,4C13.4,4,8,9.4,8,16c0,4.3,2.3,8.1,5.7,10.2L6,33.8l0.7,0.7
		l7.3-7.3V33c0,1.1,0.9,2,2,2c0,1.1,0.9,2,2,2h4c1.1,0,2-0.9,2-2c1.1,0,2-0.9,2-2v-6.6c3.6-2.1,6-5.9,6-10.4c0-1.9-0.5-3.8-1.3-5.4
		L34.5,6.7z M9,16C9,9.9,13.9,5,20,5c4,0,7.6,2.2,9.5,5.4L14.4,25.5C11.2,23.6,9,20,9,16z M22,36h-4c-0.6,0-1-0.4-1-1h6
		C23,35.6,22.6,36,22,36z M25,28h-1v1h1v1h-1v1h1v1h-1v1h1c0,0.6-0.4,1-1,1h-8c-0.6,0-1-0.4-1-1h1v-1h-1v-1h1v-1h-1v-1h1v-1h-1v-1
		h10V28z M31,16c0,4.5-2.6,8.3-6.4,10h-9.1c0,0-0.1,0-0.1-0.1L30,11.3C30.6,12.7,31,14.3,31,16z"/>
	<path class="st5" d="M20,39C9.5,39,1,30.5,1,20S9.5,1,20,1s19,8.5,19,19S30.5,39,20,39 M20,0C9,0,0,9,0,20s9,20,20,20s20-9,20-20
		S31,0,20,0"/>
</g>
</svg>
