<?xml version="1.0" encoding="utf-8"?>
<!-- Generator: Adobe Illustrator 24.1.1, SVG Export Plug-In . SVG Version: 6.00 Build 0)  -->
<svg version="1.1" id="Layer_1" xmlns="http://www.w3.org/2000/svg" xmlns:xlink="http://www.w3.org/1999/xlink" x="0px" y="0px"
	 viewBox="0 0 40 40" style="enable-background:new 0 0 40 40;" xml:space="preserve">
<style type="text/css">
	.st0{fill:#E7EBF0;}
	.st1{fill:#FFFFFF;}
	.st2{fill:#FFD058;}
	.st3{fill:#2E3A59;}
	.st4{fill:#EBEFF3;}
</style>
<g>
	<path class="st0" d="M20,0L20,0c11,0,20,9,20,20l0,0c0,11-9,20-20,20l0,0C9,40,0,31,0,20l0,0C0,9,9,0,20,0z"/>
	<path class="st1" d="M12.5,14.5c2.8,0.3,5,2.6,5,5.5s-2.2,5.2-5,5.5V14.5z"/>
	<g>
		<circle class="st2" cx="22" cy="8" r="1.5"/>
		<circle class="st2" cx="27" cy="13" r="1.5"/>
		<circle class="st2" cx="28" cy="20" r="1.5"/>
		<circle class="st2" cx="27" cy="27" r="1.5"/>
		<circle class="st2" cx="22" cy="32" r="1.5"/>
	</g>
	<g>
		<path class="st3" d="M18.3,15.4l3.2-5.5C21.6,10,21.8,10,22,10c1.1,0,2-0.9,2-2s-0.9-2-2-2s-2,0.9-2,2c0,0.5,0.2,1,0.6,1.4l-3,5.3
			C17.8,14.9,18.1,15.1,18.3,15.4z M22,7c0.5,0,1,0.5,1,1s-0.5,1-1,1s-1-0.5-1-1S21.5,7,22,7z"/>
		<path class="st3" d="M19.3,16.9c0.1,0.3,0.3,0.6,0.4,0.9l5.9-3.4C26,14.8,26.5,15,27,15c1.1,0,2-0.9,2-2s-0.9-2-2-2s-2,0.9-2,2
			c0,0.2,0,0.4,0.1,0.6L19.3,16.9z M27,12c0.5,0,1,0.5,1,1s-0.5,1-1,1s-1-0.5-1-1S26.5,12,27,12z"/>
		<path class="st3" d="M18,20c0-3-2.1-5.4-5-5.9V8h-1v5.9v12.2V32h1v-6.1C15.9,25.4,18,23,18,20z M13,24.9v-9.8c2.3,0.5,4,2.5,4,4.9
			S15.3,24.4,13,24.9z"/>
		<path class="st3" d="M28,18c-0.9,0-1.7,0.6-1.9,1.5H20v1h6.1c0.2,0.9,1,1.5,1.9,1.5c1.1,0,2-0.9,2-2S29.1,18,28,18z M28,21
			c-0.5,0-1-0.5-1-1s0.5-1,1-1s1,0.5,1,1S28.5,21,28,21z"/>
		<path class="st3" d="M27,25c-0.5,0-1,0.2-1.4,0.6l-5.9-3.4c-0.1,0.3-0.2,0.6-0.4,0.9l5.8,3.4C25,26.6,25,26.8,25,27
			c0,1.1,0.9,2,2,2s2-0.9,2-2S28.1,25,27,25z M27,28c-0.5,0-1-0.5-1-1s0.5-1,1-1s1,0.5,1,1S27.5,28,27,28z"/>
		<path class="st3" d="M22,30c-0.2,0-0.4,0-0.6,0.1l-3.2-5.5c-0.2,0.3-0.5,0.5-0.7,0.7l3,5.2l0.1,0C20.2,30.9,20,31.4,20,32
			c0,1.1,0.9,2,2,2s2-0.9,2-2S23.1,30,22,30z M22,33c-0.5,0-1-0.5-1-1s0.5-1,1-1s1,0.5,1,1S22.5,33,22,33z"/>
	</g>
	<path class="st4" d="M20,39C9.5,39,1,30.5,1,20S9.5,1,20,1s19,8.5,19,19S30.5,39,20,39 M20,0C9,0,0,9,0,20s9,20,20,20s20-9,20-20
		S31,0,20,0"/>
</g>
</svg>
