<?xml version="1.0" encoding="utf-8"?>
<!-- Generator: Adobe Illustrator 24.1.1, SVG Export Plug-In . SVG Version: 6.00 Build 0)  -->
<svg version="1.1" id="Layer_1" xmlns="http://www.w3.org/2000/svg" xmlns:xlink="http://www.w3.org/1999/xlink" x="0px" y="0px"
	 viewBox="0 0 40 40" style="enable-background:new 0 0 40 40;" xml:space="preserve">
<style type="text/css">
	.st0{fill:#E7EBF0;}
	.st1{fill:#EBEFF3;}
	.st2{fill:#FFD058;}
	.st3{fill:#2E3A59;}
</style>
<g>
	<path class="st0" d="M20,0L20,0c11,0,20,9,20,20l0,0c0,11-9,20-20,20l0,0C9,40,0,31,0,20l0,0C0,9,9,0,20,0z"/>
	<path class="st1" d="M20,39C9.5,39,1,30.5,1,20S9.5,1,20,1s19,8.5,19,19S30.5,39,20,39 M20,0C9,0,0,9,0,20s9,20,20,20s20-9,20-20
		S31,0,20,0"/>
	<path class="st2" d="M20,5.5L20,5.5c0.8,0,1.5,0.7,1.5,1.5v8c0,0.8-0.7,1.5-1.5,1.5l0,0c-0.8,0-1.5-0.7-1.5-1.5V7
		C18.5,6.2,19.2,5.5,20,5.5z"/>
	<path class="st3" d="M16,13.1v1.2c-1.8,1.3-3,3.4-3,5.7c0,3.8,3.2,7,7,7s7-3.2,7-7c0-2.3-1.2-4.4-3-5.7v-1.2c2.4,1.4,4,4,4,6.9
		c0,4.4-3.6,8-8,8s-8-3.6-8-8C12,17.1,13.6,14.5,16,13.1z M24,8.7v1c4.1,1.6,7,5.5,7,10.3c0,6.2-4.8,11-11,11S9,26.2,9,20
		c0-4.8,2.9-8.7,7-10.3v-1c-4.7,1.6-8,6-8,11.3c0,6.7,5.3,12,12,12s12-5.3,12-12C32,14.7,28.7,10.3,24,8.7z M22,15V7
		c0-1.1-0.9-2-2-2s-2,0.9-2,2v8c0,1.1,0.9,2,2,2S22,16.1,22,15z M21,7v8c0,0.5-0.5,1-1,1s-1-0.5-1-1V7c0-0.5,0.5-1,1-1S21,6.5,21,7z
		"/>
</g>
</svg>
