<?xml version="1.0" encoding="utf-8"?>
<!-- Generator: Adobe Illustrator 24.1.1, SVG Export Plug-In . SVG Version: 6.00 Build 0)  -->
<svg version="1.1" id="Layer_1" xmlns="http://www.w3.org/2000/svg" xmlns:xlink="http://www.w3.org/1999/xlink" x="0px" y="0px"
	 viewBox="0 0 100 100" style="enable-background:new 0 0 100 100;" xml:space="preserve">
<style type="text/css">
	.st0{fill:#2E3A59;}
	.st1{fill:#00C368;}
</style>
<g>
	<g>
		<path class="st0" d="M74,86H26c-2.2,0-4-1.8-4-4V18c0-2.2,1.8-4,4-4h48c2.2,0,4,1.8,4,4v64C78,84.2,76.2,86,74,86z M26,16
			c-1.1,0-2,0.9-2,2v64c0,1.1,0.9,2,2,2h48c1.1,0,2-0.9,2-2V18c0-1.1-0.9-2-2-2H26z"/>
		<path class="st0" d="M66,24H34c-2.2,0-4-1.8-4-4v-6h40v6C70,22.2,68.2,24,66,24z M32,16v4c0,1.1,0.9,2,2,2h32c1.1,0,2-0.9,2-2v-4
			H32z"/>
	</g>
	<path class="st1" d="M66,77H34c-2.2,0-4-1.8-4-4v-2c0-2.2,1.8-4,4-4h32c2.2,0,4,1.8,4,4v2C70,75.2,68.2,77,66,77z M34,69
		c-1.1,0-2,0.9-2,2v2c0,1.1,0.9,2,2,2h32c1.1,0,2-0.9,2-2v-2c0-1.1-0.9-2-2-2H34z"/>
</g>
</svg>
