<?xml version="1.0" encoding="utf-8"?>
<!-- Generator: Adobe Illustrator 24.1.1, SVG Export Plug-In . SVG Version: 6.00 Build 0)  -->
<svg version="1.1" id="Layer_1" xmlns="http://www.w3.org/2000/svg" xmlns:xlink="http://www.w3.org/1999/xlink" x="0px" y="0px"
	 viewBox="0 0 100 100" style="enable-background:new 0 0 100 100;" xml:space="preserve">
<style type="text/css">
	.st0{fill:#2E3A59;}
</style>
<g>
	<path class="st0" d="M79,53.8h-2V39.3c0-12.7-10.3-23-23-23h-8c-12.7,0-23,10.3-23,23v14.5h-2V39.3c0-13.8,11.2-25,25-25h8
		c13.8,0,25,11.2,25,25V53.8z"/>
	<path class="st0" d="M50,77.3c-13.2,0-24-10.8-24-24v-8c0-13.2,10.8-24,24-24s24,10.8,24,24v8C74,66.5,63.2,77.3,50,77.3z M50,23.3
		c-12.1,0-22,9.9-22,22v8c0,12.1,9.9,22,22,22s22-9.9,22-22v-8C72,33.2,62.1,23.3,50,23.3z"/>
	<path class="st0" d="M54,85.8h-6.5v-2H54c12.7,0,23-10.3,23-23V50.3h2v10.5C79,74.6,67.8,85.8,54,85.8z"/>
	<path class="st0" d="M22,61.3c-2.2,0-4-1.8-4-4v-8c0-2.3,1.7-4,4-4c2.2,0,4,1.8,4,4v8C26,59.5,24.2,61.3,22,61.3z M22,47.3
		c-1.2,0-2,0.8-2,2v8c0,1.1,0.9,2,2,2s2-0.9,2-2v-8C24,48.2,23.1,47.3,22,47.3z"/>
	<path class="st0" d="M78,61.3c-2.2,0-4-1.8-4-4v-8c0-2.3,1.7-4,4-4c2.2,0,4,1.8,4,4v8C82,59.5,80.2,61.3,78,61.3z M78,47.3
		c-1.2,0-2,0.8-2,2v8c0,1.1,0.9,2,2,2s2-0.9,2-2v-8C80,48.2,79.1,47.3,78,47.3z"/>
</g>
</svg>
