<?xml version="1.0" encoding="utf-8"?>
<!-- Generator: Adobe Illustrator 24.1.1, SVG Export Plug-In . SVG Version: 6.00 Build 0)  -->
<svg version="1.1" id="Layer_1" xmlns="http://www.w3.org/2000/svg" xmlns:xlink="http://www.w3.org/1999/xlink" x="0px" y="0px"
	 viewBox="0 0 100 100" style="enable-background:new 0 0 100 100;" xml:space="preserve">
<style type="text/css">
	.st0{fill:#2E3A59;}
	.st1{fill:#00C368;}
</style>
<g>
	<g>
		<path class="st0" d="M35.5,79c-4.4,0-8-3.6-8-8s3.6-8,8-8s8,3.6,8,8S39.9,79,35.5,79z M35.5,65c-3.3,0-6,2.7-6,6s2.7,6,6,6
			s6-2.7,6-6S38.8,65,35.5,65z"/>
		<path class="st0" d="M41.9,60l-8.3-30.9l30.9-8.3l8.3,30.9L41.9,60z M36.1,30.5l7.2,27l27-7.2l-7.2-27L36.1,30.5z"/>
	</g>
	<path class="st1" d="M48.2,37.6l-2.6-9.7l7.7-2.1l2.6,9.7L48.2,37.6z M48.1,29.3l1.6,5.8l3.9-1L52,28.3L48.1,29.3z"/>
</g>
</svg>
