<?xml version="1.0" encoding="utf-8"?>
<!-- Generator: Adobe Illustrator 24.1.1, SVG Export Plug-In . SVG Version: 6.00 Build 0)  -->
<svg version="1.1" id="Layer_1" xmlns="http://www.w3.org/2000/svg" xmlns:xlink="http://www.w3.org/1999/xlink" x="0px" y="0px"
	 viewBox="0 0 100 100" style="enable-background:new 0 0 100 100;" xml:space="preserve">
<style type="text/css">
	.st0{fill:#2E3A59;}
</style>
<g>
	<path class="st0" d="M28.3,74.4c-4.3,0-8.4-1.7-11.5-4.8l-4.5-4.4c-3.1-3.1-4.7-7.1-4.7-11.4s1.7-8.2,4.7-11.2L37.9,17
		c3-3,7.1-4.7,11.3-4.7c0,0,0,0,0.1,0c4.3,0,8.2,1.7,11.2,4.7l4.4,4.4c3.2,3.2,4.9,7.5,4.7,12c-0.2,4.7-2.3,9.1-5.9,12.2
		c-4.2,3.6-8,7-10.9,10c-3.7,3.7-8,8.4-11.7,12.8C38,72,33.6,74.1,29,74.3C28.7,74.4,28.5,74.4,28.3,74.4z M13.7,63.8l4.5,4.4
		c2.8,2.8,6.6,4.3,10.7,4.2c4.1-0.2,8-2.1,10.7-5.2c3.8-4.5,8.1-9.2,11.9-13c3-3,6.8-6.4,11.1-10.1c3.1-2.7,5-6.6,5.2-10.8
		c0.1-4-1.3-7.8-4.1-10.6l-4.4-4.4c-2.6-2.7-6.1-4.1-9.8-4.1c-3.8,0-7.3,1.5-10,4.1L13.7,44c-2.7,2.6-4.1,6.1-4.1,9.8
		C9.6,57.6,11,61.1,13.7,63.8z"/>
	<path class="st0" d="M22.2,68.1c-4.3,0-8.4-1.7-11.5-4.8l-0.4-0.4C4.5,57.1,4,48,9.2,41.9C13,37.4,18.5,31,23.5,26.1
		c3.3-3.2,7.8-7.3,14-12.5c6.2-5.1,15.2-4.7,21,1.1l0.4,0.4c3.2,3.2,4.9,7.5,4.7,12c-0.2,4.7-2.3,9.1-5.9,12.2c-4.2,3.6-8,7-10.9,10
		C43,53,38.7,57.7,35,62.1c-3.1,3.6-7.5,5.7-12.1,5.9C22.6,68.1,22.4,68.1,22.2,68.1z M11.7,61.5l0.4,0.4c2.8,2.8,6.6,4.3,10.7,4.2
		c4.1-0.2,8-2.1,10.7-5.2c3.8-4.5,8.1-9.2,11.9-13c3-3,6.8-6.4,11.1-10.1c3.1-2.7,5-6.6,5.2-10.8c0.1-4-1.3-7.8-4.1-10.6L57,16.1
		c-5-5-12.9-5.4-18.3-0.9c-6.1,5.1-10.6,9.2-13.8,12.3c-3.8,3.8-8.8,9.4-14.1,15.6C6.2,48.5,6.6,56.4,11.7,61.5L11.7,61.5z"/>
	<path class="st0" d="M43.1,38.6c-2.3,0-4.5-0.9-6.3-2.6c-1.7-1.7-2.6-4-2.6-6.4c0-2.3,1-4.5,2.6-6.2c3.5-3.5,9-3.5,12.5,0
		s3.5,9,0,12.5C47.7,37.8,45.4,38.6,43.1,38.6z M43.2,22.9c-1.7,0-3.5,0.7-4.8,2l0,0c-1.3,1.2-2,2.9-2,4.7c0,1.9,0.7,3.6,2,4.9
		c2.7,2.7,7,2.7,9.7,0c1.3-1.3,2-3,2-4.8s-0.7-3.5-2-4.8C46.6,23.5,44.9,22.9,43.2,22.9z"/>
	<path class="st0" d="M92.4,89.9h-24c-1.2,0-2-0.8-2-2v-20c0-1.1,0.9-2,2-2h24c1.2,0,2,0.8,2,2v20C94.4,89.1,93.6,89.9,92.4,89.9z
		 M68.4,67.9L68.4,67.9v20h24v-20H68.4z"/>
	<path class="st0" d="M81.4,59.9h-2c0-10.2-3.5-13.1-10.3-15l0.5-1.9C77.1,45.1,81.4,48.5,81.4,59.9z"/>
</g>
</svg>
