<svg width="216" height="63" viewBox="0 0 216 63" fill="none" xmlns="http://www.w3.org/2000/svg">
<path d="M194.123 25.0147C194.123 26.2499 193.815 27.7941 193.198 29.3382C192.582 30.8823 191.658 32.1176 190.733 33.6617C189.809 35.2058 188.576 36.4411 187.344 37.3676C186.111 38.6029 185.187 39.5294 183.954 40.7647L181.797 42.3088V42.6176L184.262 41.9999H190.733L189.809 46.0146H175.635L176.251 43.5441C176.867 42.9264 177.792 41.9999 178.716 41.3823C179.64 40.4558 180.565 39.5294 181.489 38.6029C182.414 37.6764 183.646 36.4411 184.571 35.5147C185.495 34.5882 186.419 33.3529 187.036 32.4264C187.652 31.4999 188.268 30.2647 188.884 29.3382C189.501 28.4117 189.501 27.4852 189.501 26.5588C189.501 25.6323 189.193 25.0147 188.884 24.7058C188.576 24.0882 187.652 23.7794 186.419 23.7794C185.803 23.7794 184.879 24.0882 183.954 24.397C183.03 24.7058 182.414 25.3235 181.489 25.9411L180.257 22.5441C181.489 21.6176 182.722 20.9999 183.954 20.6911C185.187 20.3823 186.419 20.0735 188.268 20.0735C190.117 20.0735 191.349 20.6911 192.582 21.6176C193.815 21.9264 194.123 23.4705 194.123 25.0147Z" fill="#A6ABBD"/>
<path d="M214.151 38.6027H210.146L208.605 46.0144H204.291L205.832 38.6027H195.355L195.971 35.8233L210.454 19.7644H214.151L211.07 34.8968H215.076L214.151 38.6027ZM207.989 29.0292L208.913 25.9409L207.064 28.7203L202.442 33.6615L200.285 35.2056L202.442 34.8968H206.448L207.989 29.0292Z" fill="#A6ABBD"/>
<path d="M216 11.7353L214.768 12.0441L211.07 12.9706L200.594 15.1324L202.442 8.95588C187.96 4.94118 172.862 13.2794 168.548 27.7941C163.926 42.3088 171.629 57.75 185.803 63C170.705 57.75 162.077 41.3824 167.007 25.6324C171.937 10.1912 188.268 1.23529 203.675 5.86765L205.216 0L216 11.7353Z" fill="#00C368"/>
<path d="M16.0193 38.8848L14.5691 47.1509H9.8479L13.9246 23.69L22.1423 23.7061C24.6775 23.7061 26.6702 24.4097 28.1204 25.817C29.5706 27.2242 30.2043 29.0611 30.0217 31.3277C29.8499 33.6265 28.8884 35.4634 27.1375 36.8384C25.3972 38.2134 23.1736 38.9009 20.4666 38.9009L16.0193 38.8848ZM16.6799 34.9693L20.6116 35.0015C21.8792 35.0015 22.9319 34.6739 23.7698 34.0186C24.6077 33.3633 25.1072 32.4771 25.2683 31.3599C25.4294 30.2427 25.2468 29.3511 24.7205 28.6851C24.2048 28.0191 23.4368 27.6646 22.4163 27.6216L17.969 27.6055L16.6799 34.9693ZM40.7209 38.5626H36.886L35.3875 47.1509H30.6663L34.7429 23.69L42.5095 23.7061C45.1091 23.7061 47.1072 24.3184 48.5037 25.543C49.9109 26.7676 50.5339 28.4703 50.3728 30.6509C50.1472 33.8736 48.4285 36.1133 45.2166 37.3702L48.5198 46.8931V47.1509H43.4924L40.7209 38.5626ZM37.5627 34.647L41.0754 34.6793C42.3215 34.6578 43.3474 34.3248 44.1531 33.6802C44.9695 33.025 45.4583 32.1387 45.6194 31.0215C45.7698 29.9796 45.6033 29.1632 45.1199 28.5723C44.6365 27.9815 43.8684 27.6646 42.8157 27.6216L38.7874 27.6055L37.5627 34.647ZM60.6853 47.4732C59.1277 47.441 57.7527 47.0757 56.5603 46.3775C55.3787 45.6685 54.4387 44.6534 53.7405 43.3321C53.053 42.0001 52.6555 40.4747 52.5481 38.7559C52.4299 36.9942 52.6179 35.1143 53.1121 33.1163C53.6062 31.1182 54.4011 29.3619 55.4968 27.8472C56.5925 26.3326 57.8762 25.1993 59.3479 24.4473C60.8303 23.6954 62.4309 23.3355 64.1497 23.3677C65.7288 23.4 67.1091 23.7759 68.2908 24.4957C69.4724 25.2047 70.4016 26.2305 71.0784 27.5733C71.7551 28.9053 72.1418 30.42 72.2385 32.1173C72.3459 34.0079 72.1418 35.9522 71.6262 37.9503C71.1106 39.9483 70.3103 41.6778 69.2253 43.1387C68.1404 44.5997 66.8674 45.6954 65.4065 46.4258C63.9563 47.1563 62.3826 47.5054 60.6853 47.4732ZM67.3723 34.7759L67.5012 33.2452C67.6086 31.3331 67.3508 29.8829 66.7278 28.8946C66.1155 27.9063 65.1809 27.3907 63.9241 27.3477C61.9583 27.2833 60.3953 28.1534 59.2351 29.9581C58.0857 31.7628 57.4358 34.2872 57.2854 37.5313C57.178 39.4327 57.4304 40.899 58.0427 41.9302C58.655 42.9507 59.6057 43.4825 60.8948 43.5255C62.5813 43.6007 63.9778 42.9454 65.0842 41.5596C66.1907 40.1632 66.9158 38.192 67.2595 35.6461L67.3723 34.7759ZM73.5276 47.1509L77.6042 23.69L84.3396 23.7061C85.9187 23.7383 87.3367 24.0982 88.5935 24.7857C89.8611 25.4625 90.887 26.44 91.6711 27.7183C92.4553 28.9966 92.928 30.4361 93.0891 32.0367C93.175 32.9713 93.1643 33.9273 93.0569 34.9049L92.9441 35.7589C92.4714 39.1964 91.1179 41.9571 88.8835 44.0411C86.6599 46.1143 83.9583 47.1509 80.7786 47.1509H73.5276ZM81.6487 27.6055L78.9255 43.2676L80.8914 43.2838C83.0613 43.2838 84.8015 42.4888 86.1121 40.899C87.4333 39.3091 88.1907 36.9083 88.384 33.6964L88.4163 33.1807C88.4485 31.4083 88.1101 30.0494 87.4011 29.1041C86.6921 28.1588 85.634 27.6646 84.2268 27.6216L81.6487 27.6055ZM115.906 23.69L113.263 39.1588C112.898 41.7476 111.823 43.794 110.04 45.2979C108.257 46.8018 106.044 47.5323 103.402 47.4893C101.747 47.4571 100.308 47.0972 99.0833 46.4097C97.8694 45.7115 96.9724 44.734 96.3923 43.4771C95.8123 42.2095 95.6135 40.7755 95.7961 39.1749L98.4226 23.69H103.144L100.517 39.191C100.442 39.7925 100.437 40.3565 100.501 40.8829C100.716 42.6231 101.753 43.5255 103.611 43.5899C104.943 43.6329 106.033 43.2676 106.882 42.4942C107.731 41.7208 108.279 40.6143 108.526 39.1749L111.168 23.69H115.906ZM134.871 39.3199C134.688 40.942 134.135 42.3814 133.211 43.6382C132.287 44.8843 131.084 45.8458 129.602 46.5225C128.119 47.1885 126.519 47.5054 124.8 47.4732C123.253 47.441 121.905 47.0865 120.756 46.4097C119.606 45.7222 118.698 44.734 118.032 43.4449C117.377 42.1451 117.007 40.6519 116.921 38.9654C116.845 37.6441 116.98 36.0006 117.323 34.0347C117.678 32.0689 118.301 30.3233 119.193 28.7979C120.095 27.2725 121.164 26.064 122.399 25.1724C124.139 23.9263 126.127 23.3248 128.361 23.3677C130.789 23.4107 132.712 24.1627 134.13 25.6236C135.558 27.0738 136.343 29.0933 136.482 31.6822L131.777 31.6661C131.777 30.1837 131.482 29.0987 130.891 28.4112C130.3 27.7237 129.382 27.3585 128.135 27.3155C126.524 27.2618 125.198 27.8365 124.156 29.0396C123.124 30.2427 122.431 31.9991 122.077 34.3087C121.733 36.5538 121.583 38.2349 121.626 39.3521C121.679 40.7701 121.996 41.8174 122.576 42.4942C123.156 43.1602 123.968 43.5093 125.01 43.5416C126.449 43.5953 127.598 43.2569 128.458 42.5264C129.328 41.7852 129.903 40.7271 130.182 39.3521L134.871 39.3199ZM156.914 27.6055H149.953L146.569 47.1509H141.848L145.232 27.6055H138.351L139.044 23.69H157.607L156.914 27.6055Z" fill="#A6ABBD"/>
</svg>
