<?xml version="1.0" encoding="utf-8"?>
<!-- Generator: Adobe Illustrator 24.1.1, SVG Export Plug-In . SVG Version: 6.00 Build 0)  -->
<svg version="1.1" id="Layer_1" xmlns="http://www.w3.org/2000/svg" xmlns:xlink="http://www.w3.org/1999/xlink" x="0px" y="0px"
	 viewBox="0 0 40 26" style="enable-background:new 0 0 40 26;" xml:space="preserve">
<style type="text/css">
	.st0{fill:#00c368;}
</style>
<g>
	<path class="st0" d="M20.5,9.5c0-5.2,4.3-9.5,9.7-9.5s9.3,4.1,9.7,9.3c0.7,7.9-5.5,14.6-13,16.7c2.6-1.5,4.4-4.1,4.7-7.2
		c-0.4,0.1-0.9,0.1-1.3,0.1C24.9,18.9,20.5,14.7,20.5,9.5z"/>
	<path class="st0" d="M0,9.5C0,4.2,4.3,0,9.7,0s9.3,4.1,9.7,9.3c0.7,7.9-5.5,14.6-13,16.7c2.6-1.5,4.4-4.1,4.7-7.2
		c-0.4,0.1-0.9,0.1-1.3,0.1C4.3,18.9,0,14.7,0,9.5z"/>
</g>
</svg>
